<?xml version="1.0" encoding="utf-8"?>
<!-- Generator: Adobe Illustrator 26.0.2, SVG Export Plug-In . SVG Version: 6.00 Build 0)  -->
<svg version="1.1" id="Слой_1" xmlns="http://www.w3.org/2000/svg" xmlns:xlink="http://www.w3.org/1999/xlink" x="0px" y="0px"
	 viewBox="0 0 1136.1 320.9" style="enable-background:new 0 0 1136.1 320.9;" xml:space="preserve">
<style type="text/css">
	.st0{fill:url(#SVGID_1_);}
</style>
<linearGradient id="SVGID_1_" gradientUnits="userSpaceOnUse" x1="0" y1="160.4758" x2="1136.1" y2="160.4758">
	<stop  offset="0" style="stop-color:#1B898F"/>
	<stop  offset="0" style="stop-color:#0AC1A0"/>
	<stop  offset="0.55" style="stop-color:#942BB1"/>
	<stop  offset="1" style="stop-color:#FF004A"/>
</linearGradient>
<path class="st0" d="M150.4,139.6h63.4c1.4,0,2.5,1.1,2.5,2.5v176.3c0,1.4-1.1,2.5-2.5,2.5h-63.4c-1.4,0-2.5-1.1-2.5-2.5V142.1
	C147.9,140.7,149,139.6,150.4,139.6z M212.1,43.6c-16.2-28.2-52.3-43.2-85.4-43.5c-18-0.2-66-2.8-100.6,37.2
	C-2,69.9,0.9,107.8,0,115.6v202.7c0,1.4,1.1,2.5,2.5,2.5h63.4c1.4,0,2.5-1.1,2.5-2.5c0.1-50.3,0-85.1,0-110.4h43
	c1.4,0,2.5-1.1,2.5-2.5V142c0-1.4-1.1-2.5-2.5-2.5H68.1c0-5.7,0-11.2,0.1-17.4C68.5,93.2,76.8,23,136,23.3
	c28.8,0.2,44.7,10.6,47.7,12.8c-22.8-1-36.2,16.9-38.7,31c-3.2,17.8,4.8,31.8,17.7,39.7c12.6,7.7,32.2,7.2,44.6-4.3
	C229.3,82.5,217.9,53.6,212.1,43.6z M410.5,143.7c0.9-1.1,0.8-2.6-0.3-3.5c-0.5-0.4-1-0.6-1.6-0.6H252.8c-1.4,0-2.5,1.1-2.5,2.5l0,0
	v57.4c0,1.4,1.1,2.5,2.5,2.5h99.1l-98.1,114.8c-0.9,1-0.8,2.6,0.3,3.5c0.5,0.4,1,0.6,1.6,0.6h155.7c1.4,0,2.5-1.1,2.5-2.5V261
	c0-1.4-1.1-2.5-2.5-2.5h-98.8L410.5,143.7z M762.5,209.4c-0.7-29.4-13.6-53.2-43.2-64c-53.1-19.3-80.5,21.5-86.7,32.4
	c-6.6-14.9-18.5-25.3-37-32.4c-42-16.2-73,15.8-79.2,22.8V142c0-1.4-1.1-2.5-2.5-2.5l0,0h-63.4c-1.4,0-2.5,1.1-2.5,2.5l0,0v176.3
	c0,1.4,1.1,2.5,2.5,2.5h63.4c1.4,0,2.5-1.1,2.5-2.5l0,0v-139c2.4-3.3,10.4-12.1,29.2-11.7c14.9,0.3,30.3,12.8,30.6,33.1
	c0,41.4-0.1,76.6-0.1,117.7c0,1.4,1.1,2.5,2.5,2.5h56.9c1.4,0,2.5-1.1,2.5-2.5c0.3-38.4,0.5-70.2,0.8-108.9c-0.1-7.1-1-14.1-2.7-21
	c4.1-6.6,15.2-21.3,33.1-20.9c14.9,0.3,30.3,12.8,30.6,33.1c0,41.4-0.1,76.6-0.1,117.7c0,1.4,1.1,2.5,2.5,2.5H760
	c1.4,0,2.5-1.1,2.5-2.5C762.7,280,762.2,248.1,762.5,209.4z M934.9,145.9c-22.4-14.5-56.5-18.5-92-3.7
	c-17.9,7.5-27.4,16.1-32.8,23.6c-3.8,5.3-6,9.4-6.6,15.7c-1.2,14.4,9.6,27.4,24.1,27.5c13.4,0.1,24.4-10.7,24.4-24.1
	c0-0.1,0-0.1,0-0.2c-0.1-19.2-18.9-23.7-18.9-23.7s28.1-15.7,56.7,4.9c26.4,19.1,23.1,51.5,23.5,57.9v16.6c-6-7.9-30.7-34.7-79.7-20
	c-26.4,8-37.2,30.6-37.2,51.5c0,33,38.2,44.2,60.1,47c18.9,2.4,58.3,1.9,58.3,1.9h64.4c1.4,0,2.5-1.1,2.5-2.5l0,0v-69.8
	C981.7,185.8,964.7,165.2,934.9,145.9z M873.8,307c-27.8-14.6-16.5-57,12.3-55.2c17.7,1.1,24.7,11.9,27.3,18.5v42.6
	C907.6,313.1,885.9,313.3,873.8,307L873.8,307z M1086.9,201.5c-0.2-19.9,0-32.4,0.1-68.7h43.1c1.4,0,2.5-1.1,2.5-2.5V66.9
	c0-1.4-1.1-2.5-2.5-2.5h-43c0-16.9,0-36.4,0-59.1c0-1.4-1.1-2.5-2.5-2.5h-63.4c-1.4,0-2.5,1.1-2.5,2.5v59.1h-25.5
	c-1.4,0-2.5,1.1-2.5,2.5v63.4c0,1.4,1.1,2.5,2.5,2.5h25.5v81.5c0,8.1-3.3,44.2,25.4,76.2c26.6,29.7,69,30.8,92,30.4v-22.2
	C1086.6,288.6,1087.2,228.7,1086.9,201.5z"/>
</svg>
