<?xml version="1.0" encoding="utf-8"?>
<!-- Generator: Adobe Illustrator 24.1.0, SVG Export Plug-In . SVG Version: 6.00 Build 0)  -->
<svg version="1.1" id="Слой_1" xmlns="http://www.w3.org/2000/svg" xmlns:xlink="http://www.w3.org/1999/xlink" x="0px" y="0px"
	 viewBox="0 0 1725.4 519.9" style="enable-background:new 0 0 1725.4 519.9;" xml:space="preserve">
<style type="text/css">
	.st0{fill:#00002D;}
	.st1{fill:none;stroke:#606060;stroke-width:2;stroke-miterlimit:10;}
	.st2{fill:#FF0094;}
	.st3{fill:#00FFAC;}
	.st4{fill:#FFFFFF;}
	.st5{fill:#303030;}
	.st6{fill:#FFF63F;}
	.st7{opacity:0.65;fill:url(#SVGID_1_);enable-background:new    ;}
	.st8{fill:#FFE015;}
	.st9{fill:#FF5B15;}
	.st10{fill:#FF0015;}
	.st11{opacity:0.65;fill:url(#SVGID_2_);enable-background:new    ;}
	.st12{opacity:0.65;fill:url(#SVGID_3_);enable-background:new    ;}
	.st13{opacity:0.65;fill:url(#SVGID_4_);enable-background:new    ;}
	.st14{opacity:0.65;fill:url(#SVGID_5_);enable-background:new    ;}
	.st15{fill:#1B1464;}
	.st16{fill:url(#SVGID_6_);}
	.st17{opacity:0.5;fill:#323232;enable-background:new    ;}
</style>
<g>
	<g>
		<circle class="st0" cx="369.9" cy="175.4" r="20"/>
		<circle class="st0" cx="369.9" cy="261.4" r="20"/>
		<circle class="st1" cx="369.4" cy="174.9" r="53.5"/>
		<circle class="st1" cx="370.4" cy="261.9" r="53.5"/>
		<circle class="st2" cx="421.9" cy="186.4" r="11"/>
		<circle class="st2" cx="316.9" cy="254.4" r="11"/>
	</g>
	<g>
		<path class="st0" d="M507.8,146.9v-22c68.7,0,137.3,0,206,0c-56,56-112,112-168,168h150v20h-202c54.7-55.3,109.3-110.7,164-166
			C607.8,146.9,557.8,146.9,507.8,146.9z"/>
		<path class="st3" d="M613.8,285.9c2-20.5,19.6-36.3,40-36c20,0.3,37,15.8,39,36c-21.9,0-43.7,0-65.6,0
			C622.7,285.9,618.3,285.9,613.8,285.9z"/>
		<path class="st4" d="M623.8,286.9c-0.7-5.9,4-11,9.5-11s10.2,5.1,9.5,11C636.5,286.9,630.1,286.9,623.8,286.9z"/>
		<path class="st4" d="M664.2,286.9c-0.7-5.9,4-11,9.5-11s10.2,5.1,9.5,11C676.9,286.9,670.6,286.9,664.2,286.9z"/>
		<circle class="st5" cx="633.1" cy="285.6" r="7.3"/>
		<circle class="st5" cx="673.5" cy="285.6" r="7.3"/>
		<path class="st3" d="M621.8,285.9"/>
		<path class="st6" d="M686.8,266.9c-1.8-1.2-6.3,1.5-6,3c0.3,1.7,7.3,2.4,8,1c0.2-0.4-0.1-0.9-0.6-2
			C687.8,268.1,687.4,267.3,686.8,266.9z"/>
		
			<linearGradient id="SVGID_1_" gradientUnits="userSpaceOnUse" x1="797.7224" y1="372.7442" x2="855.7587" y2="396.3384" gradientTransform="matrix(-0.9586 -0.2849 -0.2849 0.9586 1610.1047 128.4528)">
			<stop  offset="6.551788e-02" style="stop-color:#FFFFFF"/>
			<stop  offset="0.833" style="stop-color:#FFF63F"/>
		</linearGradient>
		<path class="st7" d="M732.8,274.9c-17.3-1.7-34.7-3.3-52-5c15.7-8.7,31.3-17.3,47-26C729.5,254.2,731.1,264.6,732.8,274.9z"/>
	</g>
	<g>
		<path class="st0" d="M785.8,316.2c7.3,0,14.7,0,22,0V178.7l81,73l81-73v137.4h22V128.7l-103,94c-34.7-32-68.3-64-103-96
			C785.8,194.7,785.8,248.2,785.8,316.2z"/>
		<path class="st8" d="M816.8,200.7c23.7,97.7,47.3,195.3,71,293c24.3-97.7,48.7-195.3,73-293c-24,22.7-48,45.3-72,68
			C864.8,246,840.8,223.4,816.8,200.7z"/>
		<path class="st9" d="M816.8,200.7c23.7,57.3,47.3,114.7,71,172c24.3-57.3,48.7-114.7,73-172c-24,22.7-48,45.3-72,68
			C864.8,246,840.8,223.4,816.8,200.7z"/>
		<path class="st10" d="M816.8,200.7c23.7,34.7,47.4,69.3,71.1,104c24.3-34.7,48.6-69.3,72.9-104c-24,22.7-48,45.3-72,68
			C864.8,246,840.8,223.4,816.8,200.7z"/>
	</g>
	<g>
		<path class="st0" d="M1189.8,123.6c35.7,63.5,71.2,127,106.9,190.5c-71.2,0-142.5,0-213.7,0
			C1118.5,250.6,1154.1,187.1,1189.8,123.6z M1117.9,295.4c47.9,0,95.9,0,143.8,0c-24-41.9-47.9-83.9-71.9-125.8
			C1165.8,211.6,1141.9,253.5,1117.9,295.4z"/>
		<linearGradient id="SVGID_2_" gradientUnits="userSpaceOnUse" x1="1052.1464" y1="163.9118" x2="1205.48" y2="254.3051">
			<stop  offset="0" style="stop-color:#FFFFFF"/>
			<stop  offset="1" style="stop-color:#101019"/>
		</linearGradient>
		<path class="st11" d="M1051.8,209.5c46,13.1,92,26.1,138,39.2c-32.7-35.8-65.4-71.6-98.1-107.4L1051.8,209.5z"/>
		
			<linearGradient id="SVGID_3_" gradientUnits="userSpaceOnUse" x1="244.8717" y1="138.2501" x2="374.6685" y2="258.7196" gradientTransform="matrix(-1 0 0 1 1553.6053 0)">
			<stop  offset="9.463927e-02" style="stop-color:#FFFFFF"/>
			<stop  offset="0.8906" style="stop-color:#7F35FF"/>
		</linearGradient>
		<path class="st12" d="M1299.5,163.8c-36.6,28.3-73.2,56.7-109.8,85c32.5-36,65.2-71.9,97.7-107.8
			C1291.6,148.5,1295.6,156.2,1299.5,163.8z"/>
		
			<linearGradient id="SVGID_4_" gradientUnits="userSpaceOnUse" x1="224.1829" y1="161.4308" x2="368.1148" y2="252.6322" gradientTransform="matrix(-1 0 0 1 1553.6053 0)">
			<stop  offset="9.252954e-02" style="stop-color:#FFFFFF"/>
			<stop  offset="0.8383" style="stop-color:#E200E9"/>
		</linearGradient>
		<path class="st13" d="M1313.1,185.2c-41.1,21.2-82.3,42.3-123.4,63.5c37.2-27.7,74.5-55.4,111.7-83.1
			C1305.4,172.2,1309.3,178.7,1313.1,185.2z"/>
		
			<linearGradient id="SVGID_5_" gradientUnits="userSpaceOnUse" x1="210.5751" y1="188.9772" x2="371.6117" y2="254.4455" gradientTransform="matrix(-1 0 0 1 1553.6053 0)">
			<stop  offset="6.551788e-02" style="stop-color:#FFFFFF"/>
			<stop  offset="0.8316" style="stop-color:#00BF8C"/>
		</linearGradient>
		<path class="st14" d="M1327.1,209.1c-45.8,13.3-91.6,26.4-137.4,39.7c41.5-20.5,82.9-41.1,124.4-61.6
			C1318.5,194.4,1322.9,201.8,1327.1,209.1z"/>
	</g>
	<g>
		<polygon class="st0" points="1380.4,149.7 1380.4,127.7 1584.4,127.7 1584.4,149.7 1492.4,149.7 1492.4,315.7 1470.4,315.7 
			1470.4,149.7 		"/>
		<circle class="st15" cx="1538.4" cy="111.7" r="16"/>
		<circle class="st15" cx="1575.4" cy="111.7" r="16"/>
		<linearGradient id="SVGID_6_" gradientUnits="userSpaceOnUse" x1="1605.433" y1="188.0489" x2="1605.3885" y2="140.7581">
			<stop  offset="0" style="stop-color:#101019"/>
			<stop  offset="8.791387e-03" style="stop-color:#14141C"/>
			<stop  offset="0.1622" style="stop-color:#4E4E54"/>
			<stop  offset="0.3155" style="stop-color:#808084"/>
			<stop  offset="0.4653" style="stop-color:#A9A9AC"/>
			<stop  offset="0.6109" style="stop-color:#C9C9CA"/>
			<stop  offset="0.751" style="stop-color:#E0E0E0"/>
			<stop  offset="0.8834" style="stop-color:#EDEDEE"/>
			<stop  offset="1" style="stop-color:#F2F2F2"/>
		</linearGradient>
		<rect x="1589.4" y="148.7" class="st16" width="32" height="37"/>
		<circle class="st15" cx="1605.4" cy="185.7" r="16"/>
		<circle class="st15" cx="1570.4" cy="299.7" r="16"/>
		<circle class="st15" cx="1669.4" cy="302.7" r="16"/>
	</g>
	<path class="st0" d="M40,127.6c68.7,0,137.3,0,206,0v22H66.3v60H246v22H66.3c0,28,0,56,0,84c-8.8,0-17.6,0-26.3,0
		C40,252.9,40,190.3,40,127.6z"/>
	<path class="st17" d="M46.7,73.6l179.4-0.1l-27.8,27.9c-2.1,2.1-2,5.4,0,7.4c2.1,2.1,5.4,2.1,7.4,0l36.8-36.9c2.1-2.1,2-5.4,0-7.4
		l-36.9-36.8c-1-1-2.4-1.5-3.7-1.5c-1.3,0-2.7,0.5-3.7,1.5c-2.1,2.1-2,5.4,0,7.4l27.9,27.8C198.6,63,73.7,63,46.1,63.1
		c-2.7,0.3-4.7,2.6-4.7,5.2C41.4,71.1,43.7,73.5,46.7,73.6z"/>
</g>
</svg>
