<svg id="Слой_1" data-name="Слой 1" xmlns="http://www.w3.org/2000/svg" viewBox="0 0 534.17 137.06"><defs><style>.cls-1{fill:#fff;}</style></defs><path class="cls-1" d="M21.89,0q9.62,0,15.67,5.78a19.69,19.69,0,0,1,6,14.87v95.76a19.65,19.65,0,0,1-6,14.86q-6.06,5.79-15.67,5.79-9.78,0-15.84-5.79a19.65,19.65,0,0,1-6-14.86V20.65A19.69,19.69,0,0,1,6.05,5.78Q12.1,0,21.89,0Zm3.92,20.65q0-4.27-3.92-4.27-4.09,0-4.09,4.27v95.76q0,4.28,4.09,4.27,3.91,0,3.92-4.27Z"/><path class="cls-1" d="M87.4,3.28V16.83a1.5,1.5,0,0,1-1.5,1.5H77.69a1.52,1.52,0,0,0-1.51,1.51V133.78a1.5,1.5,0,0,1-1.5,1.5H59.89a1.51,1.51,0,0,1-1.51-1.5V19.84a1.51,1.51,0,0,0-1.5-1.51H48.67a1.5,1.5,0,0,1-1.5-1.5V3.28a1.5,1.5,0,0,1,1.5-1.5H85.9A1.5,1.5,0,0,1,87.4,3.28Z"/><path class="cls-1" d="M119.34,1.78h14.79a1.5,1.5,0,0,1,1.5,1.5v130.5a1.5,1.5,0,0,1-1.5,1.5H119.34a1.51,1.51,0,0,1-1.51-1.5V77.33a1.5,1.5,0,0,0-1.5-1.5H111.5a1.5,1.5,0,0,0-1.5,1.5v56.45a1.5,1.5,0,0,1-1.5,1.5H93.7a1.5,1.5,0,0,1-1.5-1.5V3.28a1.5,1.5,0,0,1,1.5-1.5h14.8a1.5,1.5,0,0,1,1.5,1.5V57.06a1.5,1.5,0,0,0,1.5,1.5h4.83a1.5,1.5,0,0,0,1.5-1.5V3.28A1.51,1.51,0,0,1,119.34,1.78Z"/><path class="cls-1" d="M161.7,118.73h14.08a1.51,1.51,0,0,1,1.51,1.5v13.55a1.51,1.51,0,0,1-1.51,1.5H143.9a1.5,1.5,0,0,1-1.5-1.5V3.28a1.5,1.5,0,0,1,1.5-1.5h31.88a1.51,1.51,0,0,1,1.51,1.5V16.83a1.51,1.51,0,0,1-1.51,1.5H161.7a1.51,1.51,0,0,0-1.5,1.51V56.17a1.5,1.5,0,0,0,1.5,1.5h9.64a1.5,1.5,0,0,1,1.5,1.5V72.55a1.5,1.5,0,0,1-1.5,1.5H161.7a1.5,1.5,0,0,0-1.5,1.5v41.67A1.51,1.51,0,0,0,161.7,118.73Z"/><path class="cls-1" d="M229.11,135.28H213.48A1.51,1.51,0,0,1,212,134L204.7,81.52h-2.06a1.51,1.51,0,0,0-1.5,1.51v50.75a1.5,1.5,0,0,1-1.5,1.5h-14.8a1.5,1.5,0,0,1-1.5-1.5V3.28a1.5,1.5,0,0,1,1.5-1.5h18.61q11.38,0,17.62,6.32t6.23,18.07V57.32q0,10.59-5.41,16.92a1.48,1.48,0,0,0-.35,1.21l9.05,58.1A1.49,1.49,0,0,1,229.11,135.28Zm-28-115.44V63.65a1.5,1.5,0,0,0,1.5,1.5h1c2.25,0,3.76-.54,4.54-1.6s1.16-3.21,1.16-6.41V26.52c0-3.32-.39-5.52-1.16-6.58s-2.29-1.61-4.54-1.61h-1A1.51,1.51,0,0,0,201.14,19.84Z"/><path class="cls-1" d="M273,42.19h-14.8a1.51,1.51,0,0,1-1.5-1.51V19.4q0-2.85-2.67-2.85t-2.67,2.85V38.45a22.26,22.26,0,0,0,1.78,9.7q1.78,3.65,8.37,11.48,8.89,10.5,11.12,16.64t2.23,15.58v22.78q0,10.5-5.34,16.47t-15.49,6q-10.14,0-15.39-5.87t-5.26-16.56V95.13a1.51,1.51,0,0,1,1.51-1.5h14.62a1.5,1.5,0,0,1,1.5,1.5v22c0,2.26,1,3.39,3,3.39s3.21-1.13,3.21-3.39V93.81q0-6.77-1.43-10.15t-8.19-11.21q-8.53-10.15-11.3-16.83a38,38,0,0,1-2.76-14.68V21.72q0-10,5.61-15.85T254.36,0Q263.61,0,269,5.87t5.43,16V40.68A1.51,1.51,0,0,1,273,42.19Z"/><path class="cls-1" d="M303,0q9.62,0,15.67,5.78a19.69,19.69,0,0,1,6.05,14.87V54a1.51,1.51,0,0,1-1.5,1.51h-14.8a1.51,1.51,0,0,1-1.5-1.51V20.65q0-4.27-3.92-4.27-4.09,0-4.09,4.27v95.76q0,4.28,4.09,4.27,3.92,0,3.92-4.27V80.18a1.5,1.5,0,0,1,1.5-1.5h14.8a1.5,1.5,0,0,1,1.5,1.5v36.23a19.65,19.65,0,0,1-6.05,14.86q-6.06,5.79-15.67,5.79-9.79,0-15.84-5.79a19.65,19.65,0,0,1-6.05-14.86V20.65a19.69,19.69,0,0,1,6.05-14.87Q293.15,0,303,0Z"/><path class="cls-1" d="M349.23,3.28v130.5a1.5,1.5,0,0,1-1.5,1.5h-14.8a1.5,1.5,0,0,1-1.5-1.5V3.28a1.5,1.5,0,0,1,1.5-1.5h14.8A1.5,1.5,0,0,1,349.23,3.28Z"/><path class="cls-1" d="M375.47,118.73h14.09a1.5,1.5,0,0,1,1.5,1.5v13.55a1.5,1.5,0,0,1-1.5,1.5H357.67a1.5,1.5,0,0,1-1.5-1.5V3.28a1.5,1.5,0,0,1,1.5-1.5h31.89a1.5,1.5,0,0,1,1.5,1.5V16.83a1.5,1.5,0,0,1-1.5,1.5H375.47a1.51,1.51,0,0,0-1.5,1.51V56.17a1.5,1.5,0,0,0,1.5,1.5h9.64a1.5,1.5,0,0,1,1.5,1.5V72.55a1.5,1.5,0,0,1-1.5,1.5h-9.64a1.5,1.5,0,0,0-1.5,1.5v41.67A1.51,1.51,0,0,0,375.47,118.73Z"/><path class="cls-1" d="M428.52,1.78h12.12a1.5,1.5,0,0,1,1.5,1.5v130.5a1.5,1.5,0,0,1-1.5,1.5H429.29a1.5,1.5,0,0,1-1.46-1.18L414.21,71.22a1,1,0,0,0-2,.21v62.35a1.5,1.5,0,0,1-1.5,1.5H398.61a1.5,1.5,0,0,1-1.5-1.5V3.28a1.5,1.5,0,0,1,1.5-1.5h11.53A1.5,1.5,0,0,1,411.61,3L425,65.27a1,1,0,0,0,2-.21V3.28A1.51,1.51,0,0,1,428.52,1.78Z"/><path class="cls-1" d="M470.8,0q9.61,0,15.66,5.78a19.66,19.66,0,0,1,6.06,14.87V54A1.52,1.52,0,0,1,491,55.54H476.22a1.51,1.51,0,0,1-1.5-1.51V20.65q0-4.27-3.92-4.27-4.1,0-4.09,4.27v95.76q0,4.28,4.09,4.27,3.92,0,3.92-4.27V80.18a1.5,1.5,0,0,1,1.5-1.5H491a1.51,1.51,0,0,1,1.51,1.5v36.23a19.63,19.63,0,0,1-6.06,14.86q-6,5.79-15.66,5.79-9.8,0-15.84-5.79a19.62,19.62,0,0,1-6-14.86V20.65a19.66,19.66,0,0,1,6-14.87Q461,0,470.8,0Z"/><path class="cls-1" d="M518.58,118.73h14.08a1.51,1.51,0,0,1,1.51,1.5v13.55a1.51,1.51,0,0,1-1.51,1.5H500.78a1.5,1.5,0,0,1-1.5-1.5V3.28a1.5,1.5,0,0,1,1.5-1.5h31.88a1.51,1.51,0,0,1,1.51,1.5V16.83a1.51,1.51,0,0,1-1.51,1.5H518.58a1.51,1.51,0,0,0-1.5,1.51V56.17a1.5,1.5,0,0,0,1.5,1.5h9.63a1.51,1.51,0,0,1,1.51,1.5V72.55a1.51,1.51,0,0,1-1.51,1.5h-9.63a1.5,1.5,0,0,0-1.5,1.5v41.67A1.51,1.51,0,0,0,518.58,118.73Z"/></svg>