<?xml version="1.0" encoding="utf-8"?>
<!-- Generator: Adobe Illustrator 26.3.1, SVG Export Plug-In . SVG Version: 6.00 Build 0)  -->
<svg version="1.1" id="Слой_1" xmlns="http://www.w3.org/2000/svg" xmlns:xlink="http://www.w3.org/1999/xlink" x="0px" y="0px"
	 viewBox="0 0 754 201.5" style="enable-background:new 0 0 754 201.5;" xml:space="preserve">
<style type="text/css">
	.st0{fill:#A3A3A3;}
</style>
<polygon class="st0" points="547.89,126.74 547.89,48.74 528.79,48.74 528.79,143.74 547.89,143.74 "/>
<path class="st0" d="M620.89,143.64h-17.3v-7.2c-2.4,3.3-5.1,5.7-7.9,7.1c-2.8,1.4-6.1,2.2-9.9,2.2c-7.9,0-14.5-2.8-19.8-8.5
	s-7.9-12.8-7.9-21.3s2.7-15.6,8.2-21.1s12.3-8.4,20.5-8.4c3.3,0,6.2,0.6,8.8,1.8c2.5,1.2,5.2,3.4,8.1,6.4v-6.9h17.3L620.89,143.64
	L620.89,143.64z M603.79,122.14v-11.7c-1-2.8-2.8-5.1-5.3-6.8c-2.5-1.7-5.3-2.6-8.5-2.6c-4.2,0-7.6,1.4-10.3,4.2
	c-2.7,2.8-4,6.4-4,10.8c0,4.5,1.3,8.2,4,11c2.7,2.9,6,4.3,10.1,4.3c3.1,0,5.9-0.8,8.4-2.5
	C600.79,127.24,602.59,125.04,603.79,122.14z"/>
<path class="st0" d="M698.09,116.04c0,8.4-2.6,15.4-7.9,21.1c-5.3,5.7-11.8,8.6-19.5,8.6c-3.8,0-7.1-0.7-10-2.2s-5.7-4-8.6-7.4v7.5
	h-17.3v-95h17.3v46.1c2.7-3,5.4-5.2,8.2-6.6s6-2.1,9.4-2.1c8.1,0,14.8,2.9,20.2,8.6C695.39,100.54,698.09,107.64,698.09,116.04z
	 M680.49,116.04c0-4.4-1.4-8-4.1-10.9c-2.7-2.9-6.1-4.4-10.1-4.4c-3.4,0-6.3,0.9-8.8,2.7c-2.5,1.8-4.4,4.3-5.5,7.6v10
	c1.2,3.3,3,5.8,5.4,7.5c2.4,1.8,5.3,2.7,8.6,2.7c4,0,7.5-1.4,10.3-4.3C679.09,124.14,680.49,120.54,680.49,116.04z"/>
<path class="st0" d="M752.99,128.64c0,4.9-1.9,9-5.7,12.1s-9,4.7-15.5,4.7c-2.8,0-5.4-0.2-7.8-0.6c-2.4-0.4-4.9-1-7.3-1.9
	c-1.5-0.6-3-1.3-4.6-2.1c-1.5-0.8-3.2-1.7-4.9-2.8l6.1-12c2.7,1.9,5.5,3.5,8.4,4.6c2.9,1.1,5.5,1.7,7.9,1.7c2.1,0,3.7-0.3,4.7-1
	s1.5-1.7,1.5-3.1c0-1.4-0.5-2.6-1.5-3.5s-3.2-2.1-6.6-3.7l-1.6-0.7c-4.5-2-7.6-3.5-9.2-4.5c-1.6-1-3.1-2.2-4.6-3.6
	c-1.2-1.2-2.1-2.6-2.7-4.2c-0.6-1.6-0.9-3.4-0.9-5.5c0-5.3,2-9.4,5.9-12.5c4-3.1,9.4-4.6,16.2-4.6c3.7,0,7.1,0.4,10.2,1.2
	c3.1,0.8,6.5,2.1,10.2,4l-5.7,12.9c-2.4-1.6-4.8-2.8-7.3-3.6c-2.4-0.8-4.8-1.3-7.1-1.3c-1.8,0-3.1,0.3-4,1c-0.9,0.6-1.4,1.5-1.4,2.7
	c0,1,0.5,1.9,1.4,2.8c0.9,0.8,2.5,1.8,4.7,2.8l1.6,0.7c7.8,3.6,13,6.8,15.6,9.6C751.69,121.04,752.99,124.54,752.99,128.64z"/>
<path class="st0" d="M477.29,17.14v162.8c0,2.9-2.3,5.2-5.2,5.2h-61.8c-2.9,0-5.2-2.3-5.2-5.2v-76.2c0-2.9-2.3-5.2-5.2-5.2h-18.5
	c-2.9,0-5.2,2.3-5.2,5.2v76.2c0,2.9-2.3,5.2-5.2,5.2h-61.8c-2.9,0-5.2-2.3-5.2-5.2V17.14c0-2.9,2.3-5.2,5.2-5.2h162.8
	C474.99,11.94,477.29,14.24,477.29,17.14z M101.99,17.14v162.8c0,2.9,2.3,5.2,5.2,5.2h61.7c2.9,0,5.2-2.3,5.2-5.2v-76.2
	c0-2.9,2.3-5.2,5.2-5.2l0,0h18.5c2.9,0,5.2,2.3,5.2,5.2v76.2c0,2.9,2.3,5.2,5.2,5.2h61.8c2.9,0,5.2-2.3,5.2-5.2V17.14
	c0-2.9-2.3-5.2-5.2-5.2h-162.8C104.29,11.94,101.99,14.24,101.99,17.14L101.99,17.14L101.99,17.14z M69.59,11.94H4.39
	c-1.9,0-3.5,1.5-3.5,3.5v166.2c0,1.9,1.6,3.5,3.5,3.5h65.2c1.9,0,3.5-1.6,3.5-3.5V15.44C73.09,13.44,71.49,11.94,69.59,11.94
	L69.59,11.94L69.59,11.94z"/>
</svg>
