<?xml version="1.0" encoding="utf-8"?>
<!-- Generator: Adobe Illustrator 26.0.2, SVG Export Plug-In . SVG Version: 6.00 Build 0)  -->
<svg version="1.1" id="Слой_1" xmlns="http://www.w3.org/2000/svg" xmlns:xlink="http://www.w3.org/1999/xlink" x="0px" y="0px"
	 viewBox="0 0 480 173.2" style="enable-background:new 0 0 752.1 173.2;" xml:space="preserve">
<style type="text/css">
	.st0{display:none;}
	.st1{fill:url(#SVGID_1_);}
</style>
<!--<path class="st0" d="M476.4,5.1v162.8c0,2.9-2.3,5.2-5.2,5.2l0,0h-61.8c-2.9,0-5.2-2.3-5.2-5.2l0,0V91.8c0-2.9-2.3-5.2-5.2-5.2l0,0-->
<!--	h-18.5c-2.9,0-5.2,2.3-5.2,5.2l0,0V168c0,2.9-2.3,5.2-5.2,5.2l0,0h-61.8c-2.9,0-5.2-2.3-5.2-5.2l0,0V5.1c0-2.9,2.3-5.2,5.2-5.2l0,0-->
<!--	h162.8C474.1-0.1,476.4,2.2,476.4,5.1L476.4,5.1z M101.1,5.1v162.8c0,2.9,2.3,5.2,5.2,5.2l0,0H168c2.9,0,5.2-2.3,5.2-5.2l0,0V91.8-->
<!--	c0-2.9,2.3-5.2,5.2-5.2l0,0h18.5c2.9,0,5.2,2.3,5.2,5.2l0,0V168c0,2.9,2.3,5.2,5.2,5.2l0,0h61.8c2.9,0,5.2-2.3,5.2-5.2l0,0V5.1-->
<!--	c0-2.9-2.3-5.2-5.2-5.2l0,0H106.3C103.4-0.1,101.1,2.2,101.1,5.1z M68.7-0.1H3.5C1.6-0.1,0,1.5,0,3.4v166.3c0,1.9,1.6,3.5,3.5,3.5-->
<!--	h65.2c1.9,0,3.5-1.6,3.5-3.5l0,0V3.4C72.2,1.5,70.6-0.1,68.7-0.1L68.7-0.1L68.7-0.1z"/>-->
<!--<polygon points="547,114.8 547,36.8 527.9,36.8 527.9,131.8 547,131.8 "/>-->
<!--<path d="M620,131.7h-17.3v-7.2c-2.4,3.3-5.1,5.7-7.9,7.1c-2.8,1.4-6.1,2.2-9.9,2.2c-7.9,0-14.5-2.8-19.8-8.5-->
<!--	c-5.3-5.7-7.9-12.8-7.9-21.3s2.7-15.6,8.2-21.1s12.3-8.4,20.5-8.4c3.3,0,6.2,0.6,8.8,1.8c2.5,1.2,5.2,3.4,8.1,6.4v-6.9h17.3-->
<!--	L620,131.7L620,131.7z M602.9,110.2V98.5c-1-2.8-2.8-5.1-5.3-6.8c-2.5-1.7-5.3-2.6-8.5-2.6c-4.2,0-7.6,1.4-10.3,4.2-->
<!--	c-2.7,2.8-4,6.4-4,10.8c0,4.5,1.3,8.2,4,11c2.7,2.9,6,4.3,10.1,4.3c3.1,0,5.9-0.8,8.4-2.5C599.9,115.3,601.7,113.1,602.9,110.2z"/>-->
<!--<path d="M697.2,104.1c0,8.4-2.6,15.4-7.9,21.1c-5.3,5.7-11.8,8.6-19.5,8.6c-3.8,0-7.1-0.7-10-2.2s-5.7-4-8.6-7.4v7.5h-17.3v-95h17.3-->
<!--	v46.1c2.7-3,5.4-5.2,8.2-6.6s6-2.1,9.4-2.1c8.1,0,14.8,2.9,20.2,8.6C694.5,88.6,697.2,95.7,697.2,104.1z M679.6,104.1-->
<!--	c0-4.4-1.4-8-4.1-10.9c-2.7-2.9-6.1-4.4-10.1-4.4c-3.4,0-6.3,0.9-8.8,2.7c-2.5,1.8-4.4,4.3-5.5,7.6v10c1.2,3.3,3,5.8,5.4,7.5-->
<!--	c2.4,1.8,5.3,2.7,8.6,2.7c4,0,7.5-1.4,10.3-4.3C678.2,112.2,679.6,108.6,679.6,104.1z"/>-->
<!--<path d="M752.1,116.7c0,4.9-1.9,9-5.7,12.1c-3.8,3.1-9,4.7-15.5,4.7c-2.8,0-5.4-0.2-7.8-0.6c-2.4-0.4-4.9-1-7.3-1.9-->
<!--	c-1.5-0.6-3-1.3-4.6-2.1c-1.5-0.8-3.2-1.7-4.9-2.8l6.1-12c2.7,1.9,5.5,3.5,8.4,4.6s5.5,1.7,7.9,1.7c2.1,0,3.7-0.3,4.7-1-->
<!--	s1.5-1.7,1.5-3.1s-0.5-2.6-1.5-3.5s-3.2-2.1-6.6-3.7l-1.6-0.7c-4.5-2-7.6-3.5-9.2-4.5c-1.6-1-3.1-2.2-4.6-3.6-->
<!--	c-1.2-1.2-2.1-2.6-2.7-4.2c-0.6-1.6-0.9-3.4-0.9-5.5c0-5.3,2-9.4,5.9-12.5c4-3.1,9.4-4.6,16.2-4.6c3.7,0,7.1,0.4,10.2,1.2-->
<!--	c3.1,0.8,6.5,2.1,10.2,4l-5.7,12.9c-2.4-1.6-4.8-2.8-7.3-3.6c-2.4-0.8-4.8-1.3-7.1-1.3c-1.8,0-3.1,0.3-4,1c-0.9,0.6-1.4,1.5-1.4,2.7-->
<!--	c0,1,0.5,1.9,1.4,2.8c0.9,0.8,2.5,1.8,4.7,2.8l1.6,0.7c7.8,3.6,13,6.8,15.6,9.6C750.8,109.1,752.1,112.6,752.1,116.7z"/>-->
<linearGradient id="SVGID_1_" gradientUnits="userSpaceOnUse" x1="479.7724" y1="973.34" x2="3.3724" y2="973.34" gradientTransform="matrix(1 0 0 -1 -1.17 1059.9399)">
	<stop  offset="0" style="stop-color:#00CCFF"/>
	<stop  offset="1" style="stop-color:#FFCC00"/>
</linearGradient>
<path class="st1" d="M476.4,5.2V168c0,2.9-2.3,5.2-5.2,5.2h-61.8c-2.9,0-5.2-2.3-5.2-5.2V91.8c0-2.9-2.3-5.2-5.2-5.2h-18.5
	c-2.9,0-5.2,2.3-5.2,5.2V168c0,2.9-2.3,5.2-5.2,5.2h-61.8c-2.9,0-5.2-2.3-5.2-5.2V5.2c0-2.9,2.3-5.2,5.2-5.2h162.8
	C474.1,0,476.4,2.3,476.4,5.2z M101.1,5.2V168c0,2.9,2.3,5.2,5.2,5.2H168c2.9,0,5.2-2.3,5.2-5.2V91.8c0-2.9,2.3-5.2,5.2-5.2l0,0
	h18.5c2.9,0,5.2,2.3,5.2,5.2V168c0,2.9,2.3,5.2,5.2,5.2h61.8c2.9,0,5.2-2.3,5.2-5.2V5.2c0-2.9-2.3-5.2-5.2-5.2H106.3
	C103.4,0,101.1,2.3,101.1,5.2L101.1,5.2L101.1,5.2z M68.7,0H3.5C1.6,0,0,1.5,0,3.5v166.2c0,1.9,1.6,3.5,3.5,3.5h65.2
	c1.9,0,3.5-1.6,3.5-3.5V3.5C72.2,1.5,70.6,0,68.7,0L68.7,0L68.7,0z"/>
</svg>
