<svg id="Слой_1" data-name="Слой 1" xmlns="http://www.w3.org/2000/svg" viewBox="0 0 1645.4 467.5"><defs><style>.cls-1,.cls-3,.cls-5{fill:#fff;}.cls-2{fill:none;stroke:#fff;stroke-miterlimit:10;stroke-width:2px;}.cls-2,.cls-3,.cls-5{opacity:0.75;}.cls-4{fill:#00ffac;}.cls-5{isolation:isolate;}</style></defs><circle class="cls-1" cx="329.9" cy="149.2" r="20"/><circle class="cls-1" cx="329.9" cy="235.2" r="20"/><circle class="cls-2" cx="329.4" cy="148.7" r="53.5"/><circle class="cls-2" cx="330.4" cy="235.7" r="53.5"/><circle class="cls-3" cx="381.9" cy="160.2" r="11"/><circle class="cls-3" cx="276.9" cy="228.2" r="11"/><path class="cls-1" d="M545.4165,142.95v-22h206l-168,168h150v20h-202q82.05-82.95,164-166Z" transform="translate(-77.6165 -22.25)"/><path class="cls-4" d="M659.4165,281.95" transform="translate(-77.6165 -22.25)"/><path class="cls-1" d="M823.4165,312.25h22V174.75l81,73,81-73v137.4h22V124.75l-103,94c-34.7-32-68.3-64-103-96Z" transform="translate(-77.6165 -22.25)"/><path class="cls-3" d="M854.4165,196.75q35.55,146.55,71,293,36.45-146.55,73-293-36,34.05-72,68Q890.4165,230.7,854.4165,196.75Z" transform="translate(-77.6165 -22.25)"/><path class="cls-3" d="M854.4165,196.75q35.55,85.95,71,172,36.45-85.95,73-172-36,34.05-72,68Q890.4165,230.7,854.4165,196.75Z" transform="translate(-77.6165 -22.25)"/><path class="cls-3" d="M854.4165,196.75q35.55,52.05,71.1,104,36.45-52.05,72.9-104-36,34.05-72,68Q890.4165,230.7,854.4165,196.75Z" transform="translate(-77.6165 -22.25)"/><path class="cls-1" d="M1227.4165,119.65q53.55,95.25,106.9,190.5h-213.7Q1173.8665,214.9,1227.4165,119.65Zm-71.9,171.8h143.8q-36-62.85-71.9-125.8Q1191.4165,228.65,1155.5165,291.45Z" transform="translate(-77.6165 -22.25)"/><path class="cls-5" d="M1089.4165,205.55q69,19.65,138,39.2l-98.1-107.4Z" transform="translate(-77.6165 -22.25)"/><path class="cls-5" d="M1337.1165,159.85q-54.9,42.45-109.8,85c32.5-36,65.2-71.9,97.7-107.8C1329.2165,144.55,1333.2165,152.25,1337.1165,159.85Z" transform="translate(-77.6165 -22.25)"/><path class="cls-5" d="M1350.7165,181.25q-61.65,31.8-123.4,63.5,55.8-41.55,111.7-83.1C1343.0165,168.25,1346.9165,174.75,1350.7165,181.25Z" transform="translate(-77.6165 -22.25)"/><path class="cls-5" d="M1364.7165,205.15c-45.8,13.3-91.6,26.4-137.4,39.7q62.25-30.75,124.4-61.6C1356.1165,190.45,1360.5165,197.85,1364.7165,205.15Z" transform="translate(-77.6165 -22.25)"/><polygon class="cls-1" points="1340.4 123.5 1340.4 101.5 1544.4 101.5 1544.4 123.5 1452.4 123.5 1452.4 289.5 1430.4 289.5 1430.4 123.5 1340.4 123.5"/><circle class="cls-3" cx="1498.4" cy="85.5" r="16"/><circle class="cls-3" cx="1535.4" cy="85.5" r="16"/><circle class="cls-3" cx="1565.4" cy="159.5" r="16"/><circle class="cls-3" cx="1530.4" cy="273.5" r="16"/><circle class="cls-3" cx="1629.4" cy="276.5" r="16"/><path class="cls-1" d="M77.6165,123.65h206v22h-179.7v60h179.7v22h-179.7v84h-26.3Z" transform="translate(-77.6165 -22.25)"/><path class="cls-5" d="M84.3165,69.65l179.4-.1-27.8,27.9a5.22,5.22,0,0,0,0,7.4,5.1332,5.1332,0,0,0,7.4,0l36.8-36.9a5.22,5.22,0,0,0,0-7.4l-36.9-36.8a5.3133,5.3133,0,0,0-7.4,0,5.22,5.22,0,0,0,0,7.4l27.9,27.8c-27.5.1-152.4.1-180,.2a5.2836,5.2836,0,0,0-4.7,5.2A5.4,5.4,0,0,0,84.3165,69.65Z" transform="translate(-77.6165 -22.25)"/></svg>